<svg xmlns="http://www.w3.org/2000/svg" xmlns:xlink="http://www.w3.org/1999/xlink" width="500" zoomAndPan="magnify" viewBox="0 0 375 374.999991" height="500" preserveAspectRatio="xMidYMid meet" version="1.0"><defs><g/><clipPath id="id1"><path d="M 58.300781 58.300781 L 317.050781 58.300781 L 317.050781 317.050781 L 58.300781 317.050781 Z M 58.300781 58.300781 " clip-rule="nonzero"/></clipPath><clipPath id="id2"><path d="M 144.292969 163.132812 L 230.542969 163.132812 L 230.542969 217.132812 L 144.292969 217.132812 Z M 144.292969 163.132812 " clip-rule="nonzero"/></clipPath></defs><rect x="-37.5" width="450" fill="#ffffff" y="-37.499999" height="449.999989" fill-opacity="1"/><rect x="-37.5" width="450" fill="#ffffff" y="-37.499999" height="449.999989" fill-opacity="1"/><rect x="-37.5" width="450" fill="#ffffff" y="-37.499999" height="449.999989" fill-opacity="1"/><rect x="-37.5" width="450" fill="#ffffff" y="-37.499999" height="449.999989" fill-opacity="1"/><g clip-path="url(#id1)"><path fill="#5c473b" d="M 187.675781 58.300781 C 116.222656 58.300781 58.300781 116.222656 58.300781 187.675781 C 58.300781 259.125 116.222656 317.050781 187.675781 317.050781 C 259.125 317.050781 317.050781 259.125 317.050781 187.675781 C 317.050781 116.222656 259.125 58.300781 187.675781 58.300781 " fill-opacity="1" fill-rule="nonzero"/></g><g fill="#ffffff" fill-opacity="1"><g transform="translate(179.414279, 277.89734)"><g><path d="M -5.367188 0.816406 C -7.214844 0.539062 -8.785156 1.71875 -9.058594 3.550781 C -9.328125 5.324219 -8.183594 6.964844 -6.335938 7.242188 C -4.570312 7.511719 -2.910156 6.292969 -2.644531 4.519531 C -2.367188 2.6875 -3.601562 1.082031 -5.367188 0.816406 Z M -5.367188 0.816406 "/></g></g></g><g fill="#ffffff" fill-opacity="1"><g transform="translate(165.207861, 275.320769)"><g/></g></g><g fill="#ffffff" fill-opacity="1"><g transform="translate(155.808658, 272.444737)"><g><path d="M -5.074219 -2.238281 C -5.3125 -2.347656 -5.492188 -2.277344 -5.597656 -2.035156 L -10.765625 9.660156 L -13.867188 8.289062 C -14.105469 8.183594 -14.289062 8.261719 -14.394531 8.496094 L -14.789062 9.394531 C -14.898438 9.636719 -14.828125 9.816406 -14.585938 9.921875 L -6.625 13.4375 C -6.386719 13.542969 -6.207031 13.472656 -6.097656 13.234375 L -5.703125 12.332031 C -5.597656 12.101562 -5.664062 11.910156 -5.90625 11.804688 L -9.007812 10.433594 L -3.84375 -1.261719 C -3.738281 -1.5 -3.816406 -1.683594 -4.046875 -1.789062 Z M -5.074219 -2.238281 "/></g></g></g><g fill="#ffffff" fill-opacity="1"><g transform="translate(143.240225, 266.725032)"><g><path d="M -2.484375 -1.667969 C -2.695312 -1.808594 -2.890625 -1.777344 -3.039062 -1.558594 L -5.472656 2.066406 L -11.539062 -2.003906 L -9.109375 -5.628906 C -8.960938 -5.847656 -9 -6.039062 -9.21875 -6.183594 L -10.140625 -6.804688 C -10.359375 -6.949219 -10.546875 -6.914062 -10.695312 -6.695312 L -18.589844 5.074219 C -18.734375 5.289062 -18.699219 5.480469 -18.480469 5.625 L -17.554688 6.246094 C -17.339844 6.390625 -17.148438 6.355469 -17.003906 6.136719 L -12.535156 -0.523438 L -6.464844 3.546875 L -10.933594 10.207031 C -11.078125 10.425781 -11.035156 10.621094 -10.824219 10.761719 L -9.902344 11.382812 C -9.683594 11.527344 -9.492188 11.492188 -9.347656 11.273438 L -1.453125 -0.492188 C -1.304688 -0.710938 -1.34375 -0.902344 -1.5625 -1.046875 Z M -2.484375 -1.667969 "/></g></g></g><g fill="#ffffff" fill-opacity="1"><g transform="translate(128.6673, 256.34326)"><g><path d="M -6.5625 -6.335938 C -6.746094 -6.511719 -6.945312 -6.515625 -7.128906 -6.324219 L -7.8125 -5.617188 C -7.988281 -5.433594 -7.984375 -5.226562 -7.800781 -5.050781 L -3.679688 -1.070312 L -5.761719 1.085938 L -9.324219 -2.351562 C -9.507812 -2.527344 -9.707031 -2.53125 -9.890625 -2.339844 L -10.546875 -1.660156 C -10.730469 -1.472656 -10.71875 -1.273438 -10.535156 -1.09375 L -6.972656 2.34375 L -11.597656 7.132812 L -15.71875 3.152344 C -15.902344 2.976562 -16.109375 2.980469 -16.285156 3.160156 L -16.96875 3.871094 C -17.152344 4.058594 -17.140625 4.257812 -16.957031 4.433594 L -11.75 9.464844 C -11.558594 9.644531 -11.367188 9.644531 -11.183594 9.453125 L -1.34375 -0.742188 C -1.160156 -0.929688 -1.164062 -1.125 -1.351562 -1.304688 Z M -6.5625 -6.335938 "/></g></g></g><g fill="#ffffff" fill-opacity="1"><g transform="translate(118.629234, 246.058137)"><g/></g></g><g fill="#ffffff" fill-opacity="1"><g transform="translate(112.59477, 238.45963)"><g><path d="M -1.476562 -2.601562 C -1.601562 -2.824219 -1.792969 -2.882812 -2.019531 -2.753906 L -5.816406 -0.597656 L -9.425781 -6.953125 L -5.628906 -9.109375 C -5.398438 -9.238281 -5.347656 -9.425781 -5.476562 -9.652344 L -6.027344 -10.621094 C -6.15625 -10.847656 -6.34375 -10.898438 -6.570312 -10.769531 L -18.894531 -3.777344 C -19.121094 -3.648438 -19.175781 -3.460938 -19.042969 -3.234375 L -18.496094 -2.265625 C -18.367188 -2.039062 -18.179688 -1.984375 -17.953125 -2.117188 L -10.976562 -6.074219 L -7.367188 0.28125 L -14.34375 4.242188 C -14.574219 4.371094 -14.621094 4.566406 -14.496094 4.785156 L -13.945312 5.75 C -13.816406 5.980469 -13.628906 6.03125 -13.402344 5.902344 L -1.078125 -1.089844 C -0.851562 -1.222656 -0.796875 -1.40625 -0.929688 -1.636719 Z M -1.476562 -2.601562 "/></g></g></g><g fill="#ffffff" fill-opacity="1"><g transform="translate(104.203917, 222.657566)"><g><path d="M -3.035156 -8.601562 C -3.121094 -8.839844 -3.296875 -8.933594 -3.546875 -8.84375 L -4.472656 -8.515625 C -4.714844 -8.433594 -4.800781 -8.246094 -4.71875 -8.007812 L -2.808594 -2.605469 L -5.640625 -1.605469 L -7.289062 -6.273438 C -7.371094 -6.511719 -7.550781 -6.605469 -7.796875 -6.515625 L -8.691406 -6.203125 C -8.9375 -6.113281 -9.019531 -5.929688 -8.933594 -5.691406 L -7.285156 -1.023438 L -13.5625 1.191406 L -15.46875 -4.210938 C -15.554688 -4.449219 -15.738281 -4.539062 -15.980469 -4.457031 L -16.90625 -4.128906 C -17.15625 -4.039062 -17.234375 -3.855469 -17.152344 -3.617188 L -14.742188 3.210938 C -14.652344 3.457031 -14.480469 3.539062 -14.230469 3.453125 L -0.871094 -1.265625 C -0.621094 -1.351562 -0.539062 -1.523438 -0.625 -1.773438 Z M -3.035156 -8.601562 "/></g></g></g><g fill="#ffffff" fill-opacity="1"><g transform="translate(99.674745, 209.275465)"><g><path d="M -15.953125 -4.714844 C -16.355469 -4.460938 -16.292969 -4.085938 -15.832031 -3.984375 L -0.507812 -0.253906 C -0.21875 -0.179688 -0.0546875 -0.328125 -0.105469 -0.625 L -0.304688 -1.835938 C -0.339844 -2.058594 -0.453125 -2.195312 -0.679688 -2.25 L -3.492188 -2.886719 L -4.625 -9.734375 L -2.167969 -11.246094 C -1.972656 -11.359375 -1.910156 -11.535156 -1.945312 -11.75 L -2.148438 -12.96875 C -2.199219 -13.265625 -2.398438 -13.351562 -2.648438 -13.191406 Z M -12.421875 -4.925781 L -6.15625 -8.789062 L -5.246094 -3.289062 Z M -12.421875 -4.925781 "/></g></g></g><g fill="#ffffff" fill-opacity="1"><g transform="translate(97.326561, 191.790089)"><g><path d="M 0.0117188 -7.816406 C 0.0117188 -8.078125 -0.125 -8.214844 -0.386719 -8.214844 L -1.371094 -8.21875 C -1.625 -8.21875 -1.769531 -8.082031 -1.769531 -7.816406 L -1.777344 -3.394531 L -14.5625 -3.414062 C -14.828125 -3.414062 -14.964844 -3.269531 -14.964844 -3.015625 L -14.964844 -1.902344 C -14.964844 -1.640625 -14.828125 -1.503906 -14.566406 -1.503906 L -0.398438 -1.480469 C -0.132812 -1.480469 0.00390625 -1.617188 0.00390625 -1.878906 Z M 0.0117188 -7.816406 "/></g></g></g><g fill="#ffffff" fill-opacity="1"><g transform="translate(97.58411, 179.317422)"><g><path d="M 0.816406 -5.484375 C 0.855469 -5.746094 0.738281 -5.898438 0.480469 -5.9375 L -12.167969 -7.820312 L -11.667969 -11.175781 C -11.628906 -11.433594 -11.753906 -11.589844 -12.003906 -11.628906 L -12.976562 -11.773438 C -13.238281 -11.8125 -13.390625 -11.699219 -13.429688 -11.4375 L -14.710938 -2.828125 C -14.75 -2.570312 -14.636719 -2.414062 -14.375 -2.375 L -13.402344 -2.230469 C -13.152344 -2.195312 -12.988281 -2.308594 -12.949219 -2.566406 L -12.449219 -5.921875 L 0.199219 -4.039062 C 0.457031 -4 0.613281 -4.125 0.652344 -4.375 Z M 0.816406 -5.484375 "/></g></g></g><g fill="#ffffff" fill-opacity="1"><g transform="translate(99.770821, 165.682366)"><g><path d="M 0.949219 -2.835938 C 1.03125 -3.078125 0.945312 -3.257812 0.695312 -3.34375 L -3.441406 -4.726562 L -1.125 -11.660156 L 3.015625 -10.273438 C 3.265625 -10.191406 3.4375 -10.277344 3.523438 -10.527344 L 3.875 -11.578125 C 3.957031 -11.828125 3.871094 -12 3.621094 -12.085938 L -9.816406 -16.582031 C -10.0625 -16.664062 -10.238281 -16.578125 -10.320312 -16.328125 L -10.671875 -15.273438 C -10.757812 -15.027344 -10.671875 -14.851562 -10.421875 -14.769531 L -2.816406 -12.226562 L -5.132812 -5.292969 L -12.738281 -7.839844 C -12.988281 -7.921875 -13.164062 -7.828125 -13.246094 -7.585938 L -13.597656 -6.53125 C -13.679688 -6.285156 -13.59375 -6.109375 -13.347656 -6.027344 L 0.0898438 -1.53125 C 0.339844 -1.449219 0.511719 -1.535156 0.597656 -1.785156 Z M 0.949219 -2.835938 "/></g></g></g><g fill="#ffffff" fill-opacity="1"><g transform="translate(106.080207, 148.790632)"><g/></g></g><g fill="#ffffff" fill-opacity="1"><g transform="translate(110.448286, 140.168129)"><g><path d="M 5.375 -6.761719 C 6.679688 -8.527344 7.167969 -10.601562 6.84375 -12.546875 C 6.816406 -12.734375 6.734375 -12.871094 6.578125 -12.984375 L 3.589844 -15.191406 C 3.378906 -15.347656 3.1875 -15.316406 3.03125 -15.105469 L 0.0234375 -11.027344 C -0.132812 -10.816406 -0.105469 -10.625 0.105469 -10.46875 L 0.867188 -9.90625 C 1.078125 -9.75 1.269531 -9.78125 1.425781 -9.992188 L 3.601562 -12.941406 L 5.050781 -11.871094 C 5.175781 -10.496094 4.808594 -9.046875 3.917969 -7.839844 C 1.992188 -5.226562 -1.539062 -4.5625 -4.386719 -6.664062 C -7.230469 -8.761719 -7.621094 -12.304688 -5.6875 -14.925781 C -4.78125 -16.15625 -3.488281 -16.921875 -2.101562 -17.195312 C -1.851562 -17.253906 -1.746094 -17.394531 -1.757812 -17.65625 L -1.792969 -18.761719 C -1.8125 -19.03125 -1.964844 -19.152344 -2.226562 -19.105469 C -4.128906 -18.777344 -5.902344 -17.738281 -7.171875 -16.019531 C -9.746094 -12.53125 -9.203125 -7.84375 -5.519531 -5.125 C -1.824219 -2.402344 2.800781 -3.273438 5.375 -6.761719 Z M 5.375 -6.761719 "/></g></g></g><g fill="#ffffff" fill-opacity="1"><g transform="translate(122.115472, 125.173969)"><g><path d="M 3.1875 -9.992188 C 3.957031 -11.722656 3.554688 -13.453125 2.003906 -15.152344 C -0.234375 -17.605469 -2.789062 -17.71875 -5.785156 -14.984375 L -8.699219 -12.324219 C -8.894531 -12.148438 -8.902344 -11.953125 -8.726562 -11.761719 L 0.824219 -1.292969 C 1.003906 -1.097656 1.195312 -1.089844 1.390625 -1.269531 L 2.195312 -2.003906 C 2.390625 -2.179688 2.398438 -2.375 2.222656 -2.566406 L -0.664062 -5.726562 L 1.246094 -7.46875 C 1.578125 -7.769531 1.871094 -8.066406 2.136719 -8.371094 L 6.785156 -6.601562 C 6.996094 -6.515625 7.167969 -6.542969 7.328125 -6.6875 L 8.292969 -7.566406 C 8.515625 -7.769531 8.484375 -8.007812 8.1875 -8.117188 Z M -1.863281 -7.046875 L -6.394531 -12.011719 L -4.667969 -13.589844 C -3.746094 -14.429688 -1.605469 -16.34375 0.636719 -13.890625 C 2.890625 -11.421875 0.757812 -9.4375 -0.136719 -8.621094 Z M -1.863281 -7.046875 "/></g></g></g><g fill="#ffffff" fill-opacity="1"><g transform="translate(134.298055, 114.246701)"><g><path d="M 7.589844 -4.125 C 11.324219 -6.332031 12.667969 -10.855469 10.332031 -14.804688 C 8 -18.746094 3.386719 -19.753906 -0.347656 -17.546875 C -4.078125 -15.339844 -5.410156 -10.816406 -3.078125 -6.875 C -0.742188 -2.921875 3.859375 -1.917969 7.589844 -4.125 Z M 6.652344 -5.710938 C 3.859375 -4.058594 0.355469 -4.816406 -1.4375 -7.847656 C -3.234375 -10.890625 -2.210938 -14.304688 0.589844 -15.960938 C 3.386719 -17.613281 6.878906 -16.871094 8.679688 -13.828125 C 10.480469 -10.78125 9.445312 -7.363281 6.652344 -5.710938 Z M 6.652344 -5.710938 "/></g></g></g><g fill="#ffffff" fill-opacity="1"><g transform="translate(152.571363, 104.129664)"><g><path d="M 6.265625 -1.792969 C 8.949219 -2.703125 10.660156 -4.859375 9.507812 -8.253906 L 6.363281 -17.539062 C 6.277344 -17.789062 6.105469 -17.875 5.855469 -17.789062 L 4.785156 -17.425781 C 4.542969 -17.34375 4.449219 -17.167969 4.535156 -16.917969 L 7.625 -7.800781 C 8.453125 -5.355469 7.546875 -4.144531 5.683594 -3.511719 C 3.847656 -2.886719 2.371094 -3.292969 1.542969 -5.738281 L -1.546875 -14.859375 C -1.632812 -15.105469 -1.816406 -15.191406 -2.054688 -15.109375 L -3.125 -14.746094 C -3.375 -14.660156 -3.460938 -14.488281 -3.375 -14.238281 L -0.226562 -4.953125 C 0.921875 -1.558594 3.617188 -0.894531 6.265625 -1.792969 Z M 6.265625 -1.792969 "/></g></g></g><g fill="#ffffff" fill-opacity="1"><g transform="translate(168.597736, 99.090812)"><g><path d="M 2.941406 -0.429688 C 3.203125 -0.464844 3.316406 -0.621094 3.277344 -0.882812 L 2.664062 -5.113281 L 5.21875 -5.488281 C 9.015625 -6.039062 10.644531 -8.050781 10.152344 -11.425781 C 9.675781 -14.714844 7.621094 -16.234375 3.609375 -15.652344 L -0.296875 -15.082031 C -0.554688 -15.046875 -0.671875 -14.890625 -0.632812 -14.628906 L 1.40625 -0.609375 C 1.445312 -0.347656 1.601562 -0.234375 1.859375 -0.269531 Z M 1.4375 -13.53125 L 3.75 -13.871094 C 4.984375 -14.050781 7.835938 -14.433594 8.3125 -11.148438 C 8.792969 -7.839844 5.914062 -7.390625 4.71875 -7.214844 L 2.40625 -6.878906 Z M 1.4375 -13.53125 "/></g></g></g><g fill="#ffffff" fill-opacity="1"><g transform="translate(184.912317, 97.252004)"><g/></g></g><g fill="#ffffff" fill-opacity="1"><g transform="translate(194.724303, 97.370499)"><g><path d="M 5.351562 -0.902344 C 7.207031 -0.648438 8.757812 -1.855469 9.003906 -3.691406 C 9.242188 -5.46875 8.074219 -7.09375 6.222656 -7.34375 C 4.453125 -7.582031 2.8125 -6.335938 2.570312 -4.558594 C 2.324219 -2.726562 3.585938 -1.140625 5.351562 -0.902344 Z M 5.351562 -0.902344 "/></g></g></g><g fill="#ffffff" fill-opacity="1"><g transform="translate(208.976774, 99.724934)"><g/></g></g><g fill="#ffffff" fill-opacity="1"><g transform="translate(218.415216, 102.453927)"><g><path d="M 5.105469 2.160156 C 5.347656 2.261719 5.527344 2.191406 5.628906 1.949219 L 10.613281 -9.828125 L 13.734375 -8.503906 C 13.976562 -8.402344 14.160156 -8.484375 14.257812 -8.71875 L 14.640625 -9.625 C 14.746094 -9.867188 14.671875 -10.046875 14.429688 -10.148438 L 6.414062 -13.539062 C 6.171875 -13.640625 5.992188 -13.570312 5.890625 -13.328125 L 5.507812 -12.417969 C 5.410156 -12.1875 5.476562 -12 5.71875 -11.894531 L 8.84375 -10.574219 L 3.863281 1.199219 C 3.757812 1.441406 3.839844 1.625 4.074219 1.722656 Z M 5.105469 2.160156 "/></g></g></g><g fill="#ffffff" fill-opacity="1"><g transform="translate(231.072453, 107.976769)"><g><path d="M 2.511719 1.628906 C 2.722656 1.765625 2.917969 1.730469 3.0625 1.511719 L 5.4375 -2.152344 L 11.570312 1.824219 L 9.195312 5.488281 C 9.050781 5.707031 9.089844 5.894531 9.3125 6.039062 L 10.246094 6.644531 C 10.464844 6.785156 10.652344 6.746094 10.796875 6.527344 L 18.507812 -5.363281 C 18.648438 -5.582031 18.609375 -5.769531 18.390625 -5.914062 L 17.457031 -6.519531 C 17.234375 -6.664062 17.046875 -6.621094 16.902344 -6.402344 L 12.539062 0.328125 L 6.410156 -3.648438 L 10.773438 -10.378906 C 10.914062 -10.597656 10.867188 -10.792969 10.65625 -10.929688 L 9.722656 -11.535156 C 9.5 -11.679688 9.3125 -11.636719 9.167969 -11.417969 L 1.460938 0.472656 C 1.316406 0.691406 1.355469 0.878906 1.578125 1.023438 Z M 2.511719 1.628906 "/></g></g></g><g fill="#ffffff" fill-opacity="1"><g transform="translate(245.79942, 118.12985)"><g><path d="M 6.660156 6.230469 C 6.847656 6.40625 7.046875 6.40625 7.226562 6.210938 L 7.898438 5.492188 C 8.070312 5.308594 8.0625 5.101562 7.878906 4.929688 L 3.695312 1.015625 L 5.746094 -1.175781 L 9.359375 2.203125 C 9.546875 2.378906 9.746094 2.378906 9.925781 2.1875 L 10.570312 1.496094 C 10.75 1.304688 10.738281 1.105469 10.550781 0.929688 L 6.9375 -2.449219 L 11.484375 -7.3125 L 15.667969 -3.398438 C 15.851562 -3.222656 16.058594 -3.230469 16.234375 -3.414062 L 16.90625 -4.132812 C 17.085938 -4.328125 17.070312 -4.527344 16.886719 -4.699219 L 11.597656 -9.644531 C 11.40625 -9.824219 11.214844 -9.820312 11.035156 -9.625 L 1.355469 0.71875 C 1.175781 0.914062 1.179688 1.105469 1.375 1.285156 Z M 6.660156 6.230469 "/></g></g></g><g fill="#ffffff" fill-opacity="1"><g transform="translate(256.006473, 128.256978)"><g/></g></g><g fill="#ffffff" fill-opacity="1"><g transform="translate(262.155353, 135.760366)"><g><path d="M 1.515625 2.578125 C 1.644531 2.796875 1.835938 2.855469 2.0625 2.71875 L 5.828125 0.507812 L 9.53125 6.804688 L 5.769531 9.019531 C 5.542969 9.152344 5.496094 9.339844 5.628906 9.566406 L 6.191406 10.523438 C 6.324219 10.75 6.511719 10.800781 6.738281 10.667969 L 18.949219 3.480469 C 19.175781 3.347656 19.226562 3.160156 19.09375 2.933594 L 18.527344 1.976562 C 18.394531 1.75 18.210938 1.703125 17.980469 1.835938 L 11.070312 5.902344 L 7.363281 -0.398438 L 14.277344 -4.464844 C 14.503906 -4.597656 14.546875 -4.792969 14.417969 -5.011719 L 13.855469 -5.96875 C 13.722656 -6.195312 13.535156 -6.242188 13.308594 -6.109375 L 1.09375 1.074219 C 0.867188 1.207031 0.820312 1.394531 0.953125 1.621094 Z M 1.515625 2.578125 "/></g></g></g><g fill="#ffffff" fill-opacity="1"><g transform="translate(270.78562, 151.429605)"><g><path d="M 3.171875 8.550781 C 3.257812 8.789062 3.4375 8.878906 3.683594 8.789062 L 4.605469 8.445312 C 4.84375 8.359375 4.929688 8.171875 4.84375 7.933594 L 2.851562 2.558594 L 5.664062 1.515625 L 7.386719 6.160156 C 7.472656 6.394531 7.652344 6.484375 7.898438 6.394531 L 8.785156 6.066406 C 9.03125 5.972656 9.109375 5.789062 9.019531 5.550781 L 7.300781 0.910156 L 13.542969 -1.402344 L 15.53125 3.96875 C 15.621094 4.207031 15.808594 4.292969 16.046875 4.207031 L 16.96875 3.863281 C 17.214844 3.773438 17.292969 3.585938 17.207031 3.351562 L 14.6875 -3.4375 C 14.597656 -3.6875 14.421875 -3.765625 14.175781 -3.675781 L 0.890625 1.25 C 0.644531 1.339844 0.5625 1.515625 0.652344 1.761719 Z M 3.171875 8.550781 "/></g></g></g><g fill="#ffffff" fill-opacity="1"><g transform="translate(275.524768, 164.739374)"><g><path d="M 16.023438 4.464844 C 16.421875 4.207031 16.355469 3.832031 15.894531 3.738281 L 0.511719 0.242188 C 0.21875 0.179688 0.0585938 0.324219 0.113281 0.625 L 0.332031 1.832031 C 0.371094 2.050781 0.488281 2.191406 0.714844 2.238281 L 3.535156 2.832031 L 4.777344 9.660156 L 2.34375 11.210938 C 2.148438 11.328125 2.089844 11.503906 2.128906 11.714844 L 2.351562 12.933594 C 2.40625 13.230469 2.609375 13.3125 2.855469 13.148438 Z M 12.496094 4.730469 L 6.292969 8.691406 L 5.296875 3.207031 Z M 12.496094 4.730469 "/></g></g></g><g fill="#ffffff" fill-opacity="1"><g transform="translate(278.147807, 182.185952)"><g><path d="M 0.109375 7.816406 C 0.113281 8.078125 0.25 8.210938 0.515625 8.207031 L 1.5 8.195312 C 1.753906 8.191406 1.898438 8.050781 1.894531 7.789062 L 1.832031 3.367188 L 14.613281 3.1875 C 14.878906 3.183594 15.011719 3.035156 15.007812 2.78125 L 14.992188 1.671875 C 14.988281 1.40625 14.851562 1.273438 14.589844 1.277344 L 0.421875 1.476562 C 0.15625 1.480469 0.0234375 1.617188 0.0273438 1.878906 Z M 0.109375 7.816406 "/></g></g></g><g fill="#ffffff" fill-opacity="1"><g transform="translate(278.086284, 194.661096)"><g><path d="M -0.730469 5.496094 C -0.765625 5.757812 -0.648438 5.910156 -0.386719 5.945312 L 12.285156 7.628906 L 11.839844 10.992188 C 11.804688 11.253906 11.933594 11.40625 12.183594 11.441406 L 13.160156 11.570312 C 13.417969 11.605469 13.574219 11.488281 13.609375 11.226562 L 14.753906 2.601562 C 14.789062 2.339844 14.671875 2.1875 14.410156 2.152344 L 13.433594 2.023438 C 13.183594 1.988281 13.019531 2.105469 12.988281 2.363281 L 12.539062 5.726562 L -0.132812 4.042969 C -0.394531 4.007812 -0.550781 4.132812 -0.582031 4.386719 Z M -0.730469 5.496094 "/></g></g></g><g fill="#ffffff" fill-opacity="1"><g transform="translate(276.113697, 208.328611)"><g><path d="M -0.90625 2.851562 C -0.980469 3.09375 -0.894531 3.273438 -0.644531 3.351562 L 3.515625 4.671875 L 1.304688 11.640625 L -2.855469 10.320312 C -3.105469 10.238281 -3.277344 10.328125 -3.355469 10.578125 L -3.691406 11.636719 C -3.773438 11.890625 -3.683594 12.0625 -3.433594 12.140625 L 10.074219 16.425781 C 10.324219 16.503906 10.496094 16.417969 10.574219 16.164062 L 10.910156 15.105469 C 10.988281 14.855469 10.902344 14.683594 10.648438 14.605469 L 3.003906 12.179688 L 5.214844 5.214844 L 12.859375 7.636719 C 13.113281 7.71875 13.285156 7.621094 13.363281 7.378906 L 13.699219 6.320312 C 13.777344 6.070312 13.6875 5.898438 13.4375 5.816406 L -0.0664062 1.53125 C -0.316406 1.453125 -0.488281 1.542969 -0.570312 1.792969 Z M -0.90625 2.851562 "/></g></g></g><g fill="#ffffff" fill-opacity="1"><g transform="translate(270.072186, 225.31674)"><g/></g></g><g fill="#ffffff" fill-opacity="1"><g transform="translate(265.83841, 234.006378)"><g><path d="M -5.269531 6.847656 C -6.542969 8.628906 -7 10.710938 -6.648438 12.652344 C -6.617188 12.839844 -6.53125 12.972656 -6.375 13.085938 L -3.351562 15.242188 C -3.136719 15.398438 -2.949219 15.363281 -2.792969 15.152344 L 0.148438 11.027344 C 0.304688 10.8125 0.269531 10.621094 0.0585938 10.46875 L -0.710938 9.921875 C -0.925781 9.765625 -1.117188 9.800781 -1.269531 10.011719 L -3.398438 12.996094 L -4.867188 11.949219 C -5.011719 10.574219 -4.667969 9.121094 -3.796875 7.898438 C -1.910156 5.257812 1.609375 4.539062 4.488281 6.59375 C 7.367188 8.648438 7.8125 12.1875 5.921875 14.835938 C 5.03125 16.082031 3.75 16.867188 2.367188 17.160156 C 2.121094 17.222656 2.019531 17.367188 2.035156 17.628906 L 2.085938 18.730469 C 2.109375 19 2.261719 19.121094 2.527344 19.070312 C 4.421875 18.710938 6.179688 17.640625 7.417969 15.90625 C 9.9375 12.375 9.324219 7.699219 5.597656 5.039062 C 1.863281 2.371094 -2.75 3.316406 -5.269531 6.847656 Z M -5.269531 6.847656 "/></g></g></g><g fill="#ffffff" fill-opacity="1"><g transform="translate(254.406952, 249.180838)"><g><path d="M -3.03125 10.042969 C -3.773438 11.785156 -3.34375 13.507812 -1.765625 15.183594 C 0.511719 17.601562 3.066406 17.671875 6.019531 14.894531 L 8.890625 12.1875 C 9.082031 12.007812 9.089844 11.8125 8.90625 11.621094 L -0.804688 1.304688 C -0.984375 1.113281 -1.179688 1.109375 -1.371094 1.289062 L -2.164062 2.039062 C -2.355469 2.21875 -2.363281 2.410156 -2.179688 2.601562 L 0.75 5.71875 L -1.128906 7.488281 C -1.453125 7.792969 -1.746094 8.097656 -2.003906 8.40625 L -6.683594 6.707031 C -6.894531 6.625 -7.066406 6.652344 -7.222656 6.800781 L -8.171875 7.695312 C -8.394531 7.902344 -8.359375 8.136719 -8.058594 8.242188 Z M 1.972656 7.015625 L 6.582031 11.910156 L 4.878906 13.515625 C 3.972656 14.371094 1.859375 16.320312 -0.417969 13.898438 C -2.710938 11.464844 -0.609375 9.445312 0.269531 8.617188 Z M 1.972656 7.015625 "/></g></g></g><g fill="#ffffff" fill-opacity="1"><g transform="translate(242.39649, 260.296919)"><g><path d="M -7.523438 4.246094 C -11.222656 6.507812 -12.5 11.050781 -10.101562 14.964844 C -7.707031 18.871094 -3.078125 19.804688 0.621094 17.539062 C 4.316406 15.273438 5.578125 10.730469 3.1875 6.824219 C 0.789062 2.910156 -3.828125 1.980469 -7.523438 4.246094 Z M -6.5625 5.816406 C -3.796875 4.121094 -0.28125 4.824219 1.558594 7.824219 C 3.40625 10.839844 2.433594 14.269531 -0.34375 15.96875 C -3.109375 17.664062 -6.617188 16.976562 -8.464844 13.960938 C -10.3125 10.945312 -9.332031 7.511719 -6.5625 5.816406 Z M -6.5625 5.816406 "/></g></g></g><g fill="#ffffff" fill-opacity="1"><g transform="translate(224.2761, 270.698017)"><g><path d="M -6.238281 1.890625 C -8.90625 2.84375 -10.582031 5.023438 -9.378906 8.402344 L -6.085938 17.636719 C -6 17.882812 -5.824219 17.964844 -5.578125 17.878906 L -4.511719 17.5 C -4.273438 17.414062 -4.179688 17.234375 -4.269531 16.988281 L -7.503906 7.917969 C -8.367188 5.488281 -7.480469 4.261719 -5.628906 3.597656 C -3.800781 2.949219 -2.320312 3.332031 -1.453125 5.761719 L 1.78125 14.832031 C 1.867188 15.078125 2.050781 15.160156 2.289062 15.074219 L 3.355469 14.695312 C 3.601562 14.605469 3.683594 14.433594 3.597656 14.183594 L 0.304688 4.949219 C -0.898438 1.570312 -3.601562 0.953125 -6.238281 1.890625 Z M -6.238281 1.890625 "/></g></g></g><g fill="#ffffff" fill-opacity="1"><g transform="translate(208.334874, 275.98635)"><g><path d="M -2.933594 0.472656 C -3.195312 0.515625 -3.308594 0.671875 -3.265625 0.933594 L -2.582031 5.15625 L -5.132812 5.566406 C -8.921875 6.179688 -10.519531 8.214844 -9.972656 11.582031 C -9.445312 14.863281 -7.367188 16.351562 -3.363281 15.707031 L 0.53125 15.078125 C 0.789062 15.035156 0.902344 14.878906 0.863281 14.617188 L -1.398438 0.628906 C -1.441406 0.371094 -1.597656 0.257812 -1.855469 0.300781 Z M -1.226562 13.554688 L -3.535156 13.925781 C -4.765625 14.125 -7.609375 14.554688 -8.136719 11.273438 C -8.671875 7.976562 -5.800781 7.480469 -4.605469 7.289062 L -2.296875 6.914062 Z M -1.226562 13.554688 "/></g></g></g><g clip-path="url(#id2)"><path fill="#ffffff" d="M 226.417969 184.441406 L 222.65625 184.441406 L 222.65625 171.433594 C 222.65625 169.167969 220.8125 167.328125 218.535156 167.328125 L 215.359375 167.328125 C 214.53125 167.328125 213.742188 167.574219 213.101562 168.003906 L 213.101562 167.234375 C 213.101562 164.96875 211.257812 163.132812 208.980469 163.132812 L 205.804688 163.132812 C 203.527344 163.132812 201.683594 164.96875 201.683594 167.234375 L 201.683594 184.441406 L 173.171875 184.441406 L 173.171875 167.234375 C 173.171875 164.96875 171.328125 163.132812 169.054688 163.132812 L 165.875 163.132812 C 163.597656 163.132812 161.753906 164.96875 161.753906 167.234375 L 161.753906 168.003906 C 161.097656 167.574219 160.324219 167.328125 159.5 167.328125 L 156.300781 167.328125 C 154.027344 167.328125 152.183594 169.167969 152.183594 171.433594 L 152.183594 184.421875 L 148.421875 184.421875 C 146.144531 184.441406 144.300781 186.277344 144.300781 188.546875 L 144.300781 191.714844 C 144.300781 193.984375 146.144531 195.820312 148.421875 195.820312 L 152.183594 195.820312 L 152.183594 208.808594 C 152.183594 211.078125 154.027344 212.914062 156.300781 212.914062 L 159.480469 212.914062 C 160.308594 212.914062 161.097656 212.671875 161.738281 212.238281 L 161.738281 213.007812 C 161.738281 215.277344 163.578125 217.113281 165.855469 217.113281 L 169.035156 217.113281 C 171.308594 217.113281 173.152344 215.277344 173.152344 213.007812 L 173.152344 195.800781 L 201.664062 195.800781 L 201.664062 213.007812 C 201.664062 215.277344 203.507812 217.113281 205.785156 217.113281 L 208.964844 217.113281 C 211.238281 217.113281 213.082031 215.277344 213.082031 213.007812 L 213.082031 212.238281 C 213.742188 212.671875 214.511719 212.914062 215.339844 212.914062 L 218.519531 212.914062 C 220.792969 212.914062 222.636719 211.078125 222.636719 208.808594 L 222.636719 195.820312 L 226.398438 195.820312 C 228.675781 195.820312 230.515625 193.984375 230.515625 191.714844 L 230.515625 188.546875 C 230.535156 186.277344 228.691406 184.441406 226.417969 184.441406 Z M 152.183594 193.964844 L 148.421875 193.964844 C 147.179688 193.964844 146.164062 192.953125 146.164062 191.714844 L 146.164062 188.546875 C 146.164062 187.308594 147.179688 186.296875 148.421875 186.296875 L 152.183594 186.296875 Z M 161.738281 208.808594 C 161.738281 210.046875 160.722656 211.058594 159.480469 211.058594 L 156.300781 211.058594 C 155.058594 211.058594 154.042969 210.046875 154.042969 208.808594 L 154.042969 171.433594 C 154.042969 170.199219 155.058594 169.183594 156.300781 169.183594 L 159.480469 169.183594 C 160.722656 169.183594 161.738281 170.199219 161.738281 171.433594 Z M 171.308594 213.007812 C 171.308594 214.246094 170.292969 215.257812 169.054688 215.257812 L 165.875 215.257812 C 164.632812 215.257812 163.617188 214.246094 163.617188 213.007812 L 163.617188 167.234375 C 163.617188 166 164.632812 164.988281 165.875 164.988281 L 169.054688 164.988281 C 170.292969 164.988281 171.308594 166 171.308594 167.234375 Z M 201.683594 193.964844 L 173.171875 193.964844 L 173.171875 191.058594 L 182.59375 191.058594 C 183.101562 191.058594 183.515625 190.644531 183.515625 190.140625 C 183.515625 189.632812 183.101562 189.222656 182.59375 189.222656 L 173.171875 189.222656 L 173.171875 186.316406 L 201.683594 186.316406 Z M 211.238281 213.007812 C 211.238281 214.246094 210.222656 215.257812 208.980469 215.257812 L 205.804688 215.257812 C 204.5625 215.257812 203.546875 214.246094 203.546875 213.007812 L 203.546875 167.234375 C 203.546875 166 204.5625 164.988281 205.804688 164.988281 L 208.980469 164.988281 C 210.222656 164.988281 211.238281 166 211.238281 167.234375 Z M 220.8125 208.808594 C 220.8125 210.046875 219.796875 211.058594 218.554688 211.058594 L 215.375 211.058594 C 214.136719 211.058594 213.121094 210.046875 213.121094 208.808594 L 213.121094 171.433594 C 213.121094 170.199219 214.136719 169.183594 215.375 169.183594 L 218.554688 169.183594 C 219.796875 169.183594 220.8125 170.199219 220.8125 171.433594 Z M 228.675781 191.714844 C 228.675781 192.953125 227.660156 193.964844 226.417969 193.964844 L 222.65625 193.964844 L 222.65625 186.277344 L 226.417969 186.277344 C 227.660156 186.277344 228.675781 187.292969 228.675781 188.527344 Z M 186.148438 191.058594 L 189.347656 191.058594 C 189.855469 191.058594 190.269531 190.644531 190.269531 190.140625 C 190.269531 189.632812 189.855469 189.222656 189.347656 189.222656 L 186.148438 189.222656 C 185.640625 189.222656 185.226562 189.632812 185.226562 190.140625 C 185.226562 190.644531 185.640625 191.058594 186.148438 191.058594 Z M 186.148438 191.058594 " fill-opacity="1" fill-rule="nonzero"/></g></svg>